<?xml version="1.0" encoding="utf-8"?>
<!-- Generator: Adobe Illustrator 21.0.2, SVG Export Plug-In . SVG Version: 6.00 Build 0)  -->
<svg version="1.1" id="Layer_1" xmlns="http://www.w3.org/2000/svg" xmlns:xlink="http://www.w3.org/1999/xlink" x="0px" y="0px"
	 viewBox="0 0 293.3 156.1" style="enable-background:new 0 0 293.3 156.1;" xml:space="preserve">
<style type="text/css">
	.st0{fill:#FFFFFF;}
</style>
<g>
	<path class="st0" d="M54.4,73.2C59.6,69,66.3,67,73.8,67c3.9,0,9.4,0.8,12.7,1.8c0.9,0.2,1.4,0.4,2,0.3c0.1,1.7,0.4,6.3,1,10.7
		c-0.4,0.5-1.4,0.6-1.9,0.1c-1.1-5-4.3-10.7-14.8-10.7c-11,0-20.4,7.1-20.4,22.2c0,15.3,9.6,23.8,21.4,23.8c9.3,0,13.4-6.1,15-10.4
		c0.5-0.4,1.6-0.2,1.9,0.3c-0.5,3.8-2.4,8.6-3.5,10c-0.9,0.1-1.7,0.4-2.5,0.7c-1.6,0.6-6.8,1.7-11.4,1.7c-6.5,0-12.7-1.3-17.9-4.9
		c-5.8-4-10.2-10.7-10.2-20.1C45.3,84.4,48.9,77.5,54.4,73.2z"/>
	<path class="st0" d="M127.1,101.4c0,9.3-6.4,15.9-15.6,15.9c-8.5,0-15.2-6-15.2-15.3c0-9.3,7-16,15.8-16
		C120.4,86.1,127.1,92.3,127.1,101.4z M111.2,88.3c-4.9,0-8.5,4.7-8.5,12.8c0,6.7,3,14,9.6,14s8.5-6.8,8.5-12.5
		C120.8,96.3,118.2,88.3,111.2,88.3z"/>
	<path class="st0" d="M141.4,108c0,5.3,0.1,6.1,2.8,6.4l1.8,0.2c0.5,0.4,0.4,1.6-0.1,1.9c-2.4-0.1-4.6-0.2-7.2-0.2
		c-2.7,0-4.9,0.1-7.1,0.2c-0.5-0.2-0.7-1.5-0.1-1.9l1.7-0.2c2.7-0.4,2.8-1.1,2.8-6.4V83.2c0-4.4-0.1-4.8-2.3-6.1l-0.7-0.4
		c-0.4-0.2-0.4-1.3,0-1.5c1.8-0.6,5.3-1.7,8-3.1c0.3,0,0.6,0.1,0.7,0.4c-0.1,2.2-0.2,5.9-0.2,9.2V108z"/>
	<path class="st0" d="M162,108c0,5.3,0.1,6.1,2.8,6.4l1.8,0.2c0.5,0.4,0.4,1.6-0.1,1.9c-2.4-0.1-4.6-0.2-7.2-0.2
		c-2.7,0-4.9,0.1-7.1,0.2c-0.5-0.2-0.7-1.5-0.1-1.9l1.7-0.2c2.7-0.4,2.8-1.1,2.8-6.4V83.2c0-4.4-0.1-4.8-2.3-6.1l-0.7-0.4
		c-0.4-0.2-0.4-1.3,0-1.5c1.9-0.6,5.3-1.7,8-3.1c0.3,0,0.6,0.1,0.7,0.4c-0.1,2.2-0.2,5.9-0.2,9.2V108z"/>
	<path class="st0" d="M178.4,97.3c-1.9,0-2,0.1-2,2c0,7.5,4.4,13.8,12.3,13.8c2.4,0,4.5-0.7,6.8-3.6c0.7-0.2,1.3,0.2,1.3,0.9
		c-2.4,5-7.8,6.9-11.6,6.9c-4.8,0-8.6-2.1-10.7-4.9c-2.2-2.9-3.1-6.4-3.1-9.6c0-9.1,6-16.7,14.9-16.7c6.4,0,10.5,4.4,10.5,8.8
		c0,1-0.1,1.6-0.3,1.9c-0.2,0.4-1.3,0.5-4.4,0.5H178.4z M182.9,95.1c5.5,0,7.1-0.3,7.7-0.7c0.2-0.1,0.4-0.4,0.4-1.4
		c0-2.1-1.4-4.7-5.7-4.7c-4.4,0-8.1,4-8.2,6.4c0,0.1,0,0.4,0.5,0.4H182.9z"/>
	<path class="st0" d="M233.2,83c0.8,0.4,0.7,2.9-0.4,3h-5.3c0.1,1.3,0.1,2.5,0.1,3.8c0,5.1-3,11.8-12.4,11.8c-1.3,0-2.4-0.1-3.3-0.2
		c-0.9,0.5-3.3,1.9-3.3,4.1c0,1.7,1.7,3.1,5.2,3.1c2.5,0,5.6-0.2,8.8-0.2c4.1,0,10.4,0.7,10.4,8.1c0,8.1-8.8,14-18.4,14
		c-9.1,0-12.3-4.9-12.3-8.6c0-1.2,0.3-2.1,0.8-2.7c1.3-1.3,3.3-3.3,5-5c0.7-0.7,1.3-1.3,0.6-1.8c-2.9-0.7-5.4-3.3-5.4-5.8
		c0-0.4,0.3-0.7,1.1-1.3c1.3-0.8,2.7-2.1,3.9-3.4c0.4-0.4,0.7-1,0.7-1.4c-2.5-1.3-5.6-4.2-5.6-9c0-6.4,5.5-11.2,12.1-11.2
		c2.8,0,5.4,0.7,7.1,1.5c2.4,1,2.9,1.2,4.5,1.2H233.2z M217.8,112.9c-2.4,0-5.3,0.1-6.4,0.8c-1.8,1.1-3.6,3.4-3.6,6.2
		c0,4,3.2,7.3,9.9,7.3c6.6,0,11-3.7,11-7.9c0-4.5-3.1-6.4-8.4-6.4H217.8z M222.3,91.8c0-5-2.1-9.3-6.6-9.3c-3.6,0-6.2,3.3-6.2,8.3
		c0,5.3,3.2,8.7,6.7,8.7C220.3,99.5,222.3,96.3,222.3,91.8z"/>
	<path class="st0" d="M242.7,97.3c-1.9,0-2,0.1-2,2c0,7.5,4.4,13.8,12.3,13.8c2.4,0,4.5-0.7,6.8-3.6c0.7-0.2,1.3,0.2,1.3,0.9
		c-2.4,5-7.8,6.9-11.6,6.9c-4.8,0-8.6-2.1-10.7-4.9c-2.2-2.9-3.1-6.4-3.1-9.6c0-9.1,6-16.7,14.9-16.7c6.4,0,10.5,4.4,10.5,8.8
		c0,1-0.1,1.6-0.3,1.9c-0.2,0.4-1.3,0.5-4.4,0.5H242.7z M247.2,95.1c5.5,0,7.1-0.3,7.7-0.7c0.2-0.1,0.4-0.4,0.4-1.4
		c0-2.1-1.4-4.7-5.7-4.7c-4.4,0-8.1,4-8.2,6.4c0,0.1,0,0.4,0.5,0.4H247.2z"/>
</g>
<path class="st0" d="M34.8,70.1c-8.9,0-16.2-2.1-22.2-6.4C4.5,57.7,0,48.4,0,37.5c0-10.1,4.1-19.4,11.2-25.3C17.6,6.8,25.9,4,35.3,4
	C39.8,4,46.6,5,51,6.3l0.2,0.1c0.7,0.2,1.2,0.3,1.7,0.3c0.1,0,0.2,0,0.4,0l0.5-0.1l0,0.5c0.1,2.3,0.5,8.2,1.2,13.8l0,0.1l-0.1,0.2
	C54.6,21.7,54,22,53.3,22c-0.5,0-1-0.2-1.4-0.5C50,12.4,44,7.8,34.1,7.8C22.3,7.8,9.6,15.2,9.6,36c0,18.1,10.3,30.3,25.7,30.3
	c11.5,0,16.2-8.3,18-13.2c0.4-0.4,0.8-0.5,1.3-0.5c0.6,0,1.4,0.3,1.8,0.9c-0.6,5.4-3,11.6-4.3,13.4L52.1,67l-0.2,0
	c-1.1,0.2-2.2,0.6-3,0.9C46.9,68.7,40.4,70.1,34.8,70.1z"/>
<path class="st0" d="M77.2,62.6c-5.7,0-10.7-2.3-13.8-6.3c-3.3-4.3-4-9.1-4-12.3c0-12.2,8.2-21.4,19.1-21.4
	c8.5,0,13.6,5.8,13.6,11.4c0,1.4-0.2,2.2-0.4,2.6c-0.4,0.7-1.5,0.8-5.8,0.8H68.6c-2.3,0-2.3,0-2.3,2.3c0,8.6,4.7,17.3,15.3,17.3
	c3.4,0,5.9-1.3,8.4-4.5c0.3-0.1,0.5-0.2,0.7-0.2c0.8,0,1.4,0.6,1.5,1.4C89,60.2,82.1,62.6,77.2,62.6z M77.5,25.8
	c-5.4,0-10,4.9-10.1,7.9c0,0.1,0,0.2,0.4,0.2h6.7c6,0,8.8-0.3,9.6-0.9c0.2-0.1,0.5-0.5,0.5-1.6C84.4,28.9,82.6,25.8,77.5,25.8z"/>
<path class="st0" d="M103.7,36c0-4.3,0-4.9-3-6.9l-1-0.7c-0.4-0.4-0.4-1.7,0.1-2c2.6-0.9,8.9-3.8,11.1-5.4c0.4,0,1,0.2,1.2,0.8
	c-0.2,2.6-0.2,4.2-0.2,5.2c0,0.7,0.4,1.2,1.2,1.2c4.7-2.9,9.9-5.7,15.5-5.7c9.2,0,13,6.3,13,13.8v19.1c0,8,0.2,9.1,4.2,9.7l2.4,0.3
	c0.8,0.6,0.6,2.4-0.2,2.8c-3.3-0.2-6.5-0.3-10.4-0.3c-4,0-7.3,0.1-10.3,0.3c-0.8-0.3-1-2.2-0.2-2.8l2.1-0.3c4.1-0.7,4.2-1.7,4.2-9.7
	V38.9c0-6.3-2.9-11-10.4-11c-4.2,0-7.9,1.8-9.4,3.9c-1.4,1.9-1.7,3.4-1.7,6.7v17c0,8,0.2,9,4.2,9.7l2,0.3c0.8,0.6,0.6,2.4-0.2,2.8
	c-3-0.2-6.2-0.3-10.1-0.3c-4,0-7.3,0.1-10.4,0.3c-0.8-0.3-1-2.2-0.2-2.8l2.3-0.3c4.1-0.6,4.2-1.7,4.2-9.7V36z"/>
<path class="st0" d="M168.9,28.8c-1.9,0-2,0.3-2,2.7v20.8c0,6.4,0.8,12.3,8.1,12.3c1.1,0,2.1-0.2,3-0.6c1-0.3,2.4-1.6,2.8-1.6
	c0.9,0,1.3,1.2,1.1,1.9c-2,2.3-6,5.1-11.7,5.1c-9.5,0-11.5-5.3-11.5-12V32c0-3-0.1-3.2-2.3-3.2h-3.1c-0.7-0.4-0.8-1.7-0.3-2.3
	c3.2-1,6-2.4,7.1-3.4c1.4-1.3,3.6-4.3,4.7-6.6c0.6-0.2,1.9-0.2,2.3,0.6v5c0,2,0.1,2.1,2,2.1h12.3c1.3,1,1.1,4,0.1,4.7H168.9z"/>
<path class="st0" d="M194.9,36c0-4.3,0-4.9-3-6.9l-1-0.7c-0.4-0.4-0.4-1.7,0.1-2c2.6-0.9,8.4-3.8,11.2-5.4c0.6,0.1,0.9,0.3,0.9,0.8
	v6.4c0,0.6,0.1,0.9,0.3,1c3.9-3.2,8.1-6.7,12.2-6.7c2.8,0,5,1.8,5,4.4c0,3.7-3,5.1-4.8,5.1c-1.1,0-1.7-0.3-2.4-0.8
	c-1.7-1.1-3.3-1.8-4.9-1.8c-1.8,0-3.1,1-4,2.2c-1.1,1.6-1.4,4.8-1.4,8.5v15.1c0,8,0.2,9.3,4.4,9.7l4,0.3c0.8,0.6,0.6,2.4-0.2,2.8
	c-5.2-0.2-8.4-0.3-12.3-0.3c-4,0-7.3,0.1-10.2,0.3c-0.8-0.3-1-2.2-0.2-2.8l2.1-0.3c4.1-0.7,4.2-1.7,4.2-9.7V36z"/>
<path class="st0" d="M247.7,44.9c1.7-0.6,1.9-1.6,1.9-3.2l0.1-5.1c0.1-4.1-1.2-9.7-8.1-9.7c-3.1,0-6.9,1.6-7.1,5
	c-0.1,1.8-0.2,3.1-1.1,3.8c-1.7,1.3-4.7,2.1-6.3,2.1c-1,0-1.6-0.6-1.6-1.6c0-5.8,12.5-13.7,20.7-13.7c8,0,11.9,4.7,11.5,13
	l-0.7,19.3c-0.2,5.1,0.8,9.7,5.1,9.7c1.1,0,2.1-0.3,2.8-0.7c0.6-0.3,1.1-0.8,1.4-0.8c0.4,0,0.8,0.7,0.8,1.4c0,0.6-3.9,4.9-9.3,4.9
	c-2.7,0-5.3-1-7.2-3.4c-0.4-0.7-1.1-1.6-1.8-1.6c-0.8,0-2.1,1-4.3,2.2c-2.4,1.3-4.9,2.8-8,2.8c-3.2,0-5.9-0.9-7.8-2.6
	c-2.1-1.9-3.4-4.7-3.4-7.8c0-4.3,2.1-6.9,9.2-9.4L247.7,44.9z M240.8,64.5c2.2,0,5.7-1.7,6.8-2.8c1.3-1.3,1.3-2.9,1.4-5.2l0.2-6.6
	c0-1.2-0.4-1.4-1.1-1.4c-0.7,0-2.6,0.4-4.5,1.1c-6.6,2.2-9.8,3.9-9.8,8.2C233.9,59.7,235.2,64.5,240.8,64.5z"/>
<path class="st0" d="M286,55.5c0,8,0.2,9.1,4.2,9.7l2.7,0.3c0.8,0.6,0.6,2.4-0.2,2.8c-3.7-0.2-6.9-0.3-10.8-0.3
	c-4,0-7.3,0.1-10.7,0.3c-0.8-0.3-1-2.2-0.2-2.8l2.6-0.3c4.1-0.6,4.2-1.7,4.2-9.7V16.8c0-6.6-0.1-7.2-3.4-9.2l-1.1-0.7
	c-0.6-0.3-0.6-1.9,0-2.2c2.8-0.9,8-2.6,12-4.7c0.4,0,0.9,0.2,1.1,0.7C286.2,4,286,9.6,286,14.4V55.5z"/>
<g>
	<g>
		<path class="st0" d="M121,149.7c0,3,0.1,3,2,3.3l0.8,0.1c0.2,0.2,0.2,0.8-0.1,0.9c-1.5-0.1-2.9-0.1-4.3-0.1c-1.6,0-3,0-4.5,0.1
			c-0.3-0.1-0.3-0.7-0.1-0.9l0.8-0.1c1.9-0.3,2-0.3,2-3.3v-9.9c0-2.1-0.1-2.8-1.5-3l-1.5-0.2c-0.2-0.2-0.2-0.6,0-0.7
			c2.6-0.5,4.8-1.2,6-2c0.2,0,0.3,0.1,0.3,0.3c-0.1,0.7-0.1,2.5-0.1,3.8V149.7z"/>
		<path class="st0" d="M147.1,138.7c0,2.4-2.1,3.5-3.5,4.5c1.9,1.1,4.1,2.8,4.1,5.8c0,3.6-3.2,5.4-6.6,5.4c-3.1,0-6.3-1.4-6.3-5
			c0-2.4,1.9-3.8,4.1-5.1c-1.7-0.8-3.6-2.6-3.6-4.9c0-3.2,2.6-5.4,6.2-5.4C144.6,134,147.1,135.6,147.1,138.7z M144.4,150.1
			c0-2.4-1.7-4-4.4-5.2c-1.5,1.2-2.2,2.5-2.2,4.4c0,2.3,1.5,3.9,3.5,3.9C143,153.1,144.4,151.9,144.4,150.1z M138.5,138.4
			c0,2.2,2.3,3.2,4.1,4.1c1.2-0.9,1.8-2.2,1.8-3.8c0-1.7-1.1-3.5-3-3.5C139.5,135.2,138.5,136.7,138.5,138.4z"/>
		<path class="st0" d="M168.8,133.6c0.2,0,0.3,0.2,0.3,0.3c-0.2,0.8-0.6,1.8-1.2,2.6l-6.5,0.8c-0.9,0.1-0.9,0.2-1.1,0.9l-0.3,1.1
			c-0.1,0.3,0,0.5,0.6,0.6l2.2,0.4c2.5,0.4,7,1.7,7,6.6c0,5.6-6.7,9-11.7,9.2c-0.4-0.2-0.5-0.7-0.2-1.1c4.4-0.5,8.9-2.7,8.9-7
			c0-4.4-4.5-5.4-8-5.5c-0.7,0-0.7-0.2-0.5-1l1.7-6.1c0.1-0.5,0.3-0.8,0.8-0.8L168.8,133.6z"/>
		<path class="st0" d="M191.5,137.5c0,1.3-0.5,2.6-3.3,4c-0.2,0.2-0.1,0.4,0.4,0.5c2.4,0.2,4.5,1.8,4.5,4.9c0,5-5.4,8.9-10.1,8.9
			c-1.5,0-3.1-0.7-3.1-2c0-0.8,0.6-1.5,1.5-1.5c0.9,0,1.5,0.8,1.7,1.2c0.6,0.7,1,1,1.7,1c1.5,0,4.6-2.2,4.6-6c0-2.6-1.3-4.7-4-4.7
			c-1.2,0-2.3,0.6-3,1.3c-0.5-0.1-0.9-0.7-0.7-1.3c2-0.9,6.2-2.1,6.2-5.3c0-1.7-1.1-2.6-2.4-2.6c-1.5,0-2.8,1-3.8,2.6
			c-0.3,0.2-0.6-0.1-0.7-0.5c1-2.3,3.3-3.8,5.9-3.8C189.7,134,191.5,135.5,191.5,137.5z"/>
	</g>
	<path class="st0" d="M62.2,146.9c-0.2,0-0.3-0.1-0.3-0.4v-5.2c0-0.3,0.2-0.4,0.3-0.4c0.1,0,0.2,0,0.3,0.1l1.7,1.7
		c0.1,0.1,0.3,0.2,0.5,0.2h39c0.3,0,0.6,0.3,0.6,0.6v0.8c0,0.3-0.3,0.6-0.6,0.6h-39c-0.1,0-0.4,0.1-0.5,0.2l-1.7,1.7
		C62.4,146.8,62.3,146.9,62.2,146.9z"/>
	<path class="st0" d="M246.1,146.9c-0.1,0-0.2,0-0.3-0.1l-1.7-1.7c-0.1-0.1-0.3-0.2-0.5-0.2h-39c-0.3,0-0.6-0.3-0.6-0.6v-0.8
		c0-0.3,0.3-0.6,0.6-0.6h39c0.1,0,0.4-0.1,0.5-0.2l1.7-1.7c0.1-0.1,0.2-0.1,0.3-0.1c0.2,0,0.3,0.1,0.3,0.4v5.2
		C246.4,146.7,246.2,146.9,246.1,146.9z"/>
</g>
</svg>
