<?xml version="1.0" encoding="utf-8"?>
<!-- Generator: Adobe Illustrator 21.0.2, SVG Export Plug-In . SVG Version: 6.00 Build 0)  -->
<svg version="1.1" id="Layer_1" xmlns="http://www.w3.org/2000/svg" xmlns:xlink="http://www.w3.org/1999/xlink" x="0px" y="0px"
	 viewBox="0 0 483.4 294.2" style="enable-background:new 0 0 483.4 294.2;" xml:space="preserve" opacity="0.25">
<style type="text/css">
	.st0{fill:#FFFFFF;}
</style>
<path class="st0" d="M278.5,279.2c-20.2,20.2-53.2,19.9-73.7-0.6l0,0c-20.5-20.5-20.8-53.5-0.6-73.7l190-190
	c20.2-20.2,53.2-19.9,73.7,0.6l0,0c20.5,20.5,20.8,53.5,0.6,73.7L278.5,279.2z"/>
<path class="st0" d="M205,279.2c20.2,20.2,53.2,19.9,73.7-0.6l0,0c20.5-20.5,20.8-53.5,0.6-73.7L89.2,15C69-5.2,36.1-5,15.6,15.6
	l0,0C-5,36.1-5.2,69,15,89.2L205,279.2z"/>
</svg>
